<svg width="138" height="31" viewBox="0 0 138 31" fill="none" xmlns="http://www.w3.org/2000/svg">
<path d="M11.448 8H15.576V24H11.448V22.208C10.4453 23.7013 8.856 24.448 6.68 24.448C4.93067 24.448 3.48 23.8613 2.328 22.688C1.19733 21.5147 0.632 19.8933 0.632 17.824V8H4.76V17.312C4.76 18.3787 5.048 19.2 5.624 19.776C6.2 20.3307 6.968 20.608 7.928 20.608C8.99467 20.608 9.848 20.2773 10.488 19.616C11.128 18.9547 11.448 17.9627 11.448 16.64V8ZM28.2528 7.552C30.0021 7.552 31.4421 8.13867 32.5728 9.312C33.7248 10.4853 34.3008 12.1067 34.3008 14.176V24H30.1728V14.688C30.1728 13.6213 29.8848 12.8107 29.3088 12.256C28.7328 11.68 27.9648 11.392 27.0048 11.392C25.9381 11.392 25.0848 11.7227 24.4448 12.384C23.8048 13.0453 23.4848 14.0373 23.4848 15.36V24H19.3568V8H23.4848V9.792C24.4874 8.29867 26.0768 7.552 28.2528 7.552ZM39.8735 6.08C39.1908 6.08 38.5935 5.83467 38.0815 5.344C37.5908 4.832 37.3455 4.23466 37.3455 3.552C37.3455 2.86933 37.5908 2.272 38.0815 1.76C38.5935 1.248 39.1908 0.991999 39.8735 0.991999C40.5775 0.991999 41.1748 1.248 41.6655 1.76C42.1775 2.272 42.4335 2.86933 42.4335 3.552C42.4335 4.23466 42.1775 4.832 41.6655 5.344C41.1748 5.83467 40.5775 6.08 39.8735 6.08ZM37.8255 24V8H41.9535V24H37.8255ZM53.3478 24.448C50.9371 24.448 48.9211 23.6373 47.2998 22.016C45.6998 20.3947 44.8997 18.3893 44.8997 16C44.8997 13.6107 45.6998 11.6053 47.2998 9.984C48.9211 8.36267 50.9371 7.552 53.3478 7.552C54.9051 7.552 56.3238 7.92533 57.6038 8.672C58.8838 9.41867 59.8544 10.4213 60.5158 11.68L56.9638 13.76C56.6438 13.0987 56.1531 12.576 55.4918 12.192C54.8518 11.808 54.1264 11.616 53.3158 11.616C52.0784 11.616 51.0544 12.032 50.2438 12.864C49.4331 13.6747 49.0278 14.72 49.0278 16C49.0278 17.2587 49.4331 18.304 50.2438 19.136C51.0544 19.9467 52.0784 20.352 53.3158 20.352C54.1478 20.352 54.8838 20.1707 55.5238 19.808C56.1851 19.424 56.6758 18.9013 56.9958 18.24L60.5798 20.288C59.8758 21.5467 58.8838 22.56 57.6038 23.328C56.3238 24.0747 54.9051 24.448 53.3478 24.448ZM74.673 8H78.801V24H74.673V22.112C73.4357 23.6693 71.697 24.448 69.457 24.448C67.3237 24.448 65.489 23.6373 63.953 22.016C62.4383 20.3733 61.681 18.368 61.681 16C61.681 13.632 62.4383 11.6373 63.953 10.016C65.489 8.37333 67.3237 7.552 69.457 7.552C71.697 7.552 73.4357 8.33067 74.673 9.888V8ZM67.057 19.264C67.889 20.096 68.945 20.512 70.225 20.512C71.505 20.512 72.561 20.096 73.393 19.264C74.2463 18.4107 74.673 17.3227 74.673 16C74.673 14.6773 74.2463 13.6 73.393 12.768C72.561 11.9147 71.505 11.488 70.225 11.488C68.945 11.488 67.889 11.9147 67.057 12.768C66.225 13.6 65.809 14.6773 65.809 16C65.809 17.3227 66.225 18.4107 67.057 19.264ZM82.5443 24V0.639999H86.6723V24H82.5443ZM99.7625 7.552C101.917 7.552 103.752 8.37333 105.267 10.016C106.803 11.6373 107.571 13.632 107.571 16C107.571 18.368 106.803 20.3733 105.267 22.016C103.752 23.6373 101.917 24.448 99.7625 24.448C97.5225 24.448 95.7945 23.6693 94.5785 22.112V30.4H90.4505V8H94.5785V9.888C95.7945 8.33067 97.5225 7.552 99.7625 7.552ZM95.8265 19.264C96.6585 20.096 97.7145 20.512 98.9945 20.512C100.275 20.512 101.331 20.096 102.163 19.264C103.016 18.4107 103.443 17.3227 103.443 16C103.443 14.6773 103.016 13.6 102.163 12.768C101.331 11.9147 100.275 11.488 98.9945 11.488C97.7145 11.488 96.6585 11.9147 95.8265 12.768C94.9945 13.6 94.5785 14.6773 94.5785 16C94.5785 17.3227 94.9945 18.4107 95.8265 19.264ZM114.61 10.752C114.994 9.728 115.623 8.96 116.498 8.448C117.394 7.936 118.386 7.68 119.474 7.68V12.288C118.215 12.1387 117.084 12.3947 116.082 13.056C115.1 13.7173 114.61 14.816 114.61 16.352V24H110.482V8H114.61V10.752ZM134.926 22.016C133.284 23.6373 131.278 24.448 128.91 24.448C126.542 24.448 124.537 23.6373 122.894 22.016C121.273 20.3733 120.462 18.368 120.462 16C120.462 13.632 121.273 11.6373 122.894 10.016C124.537 8.37333 126.542 7.552 128.91 7.552C131.278 7.552 133.284 8.37333 134.926 10.016C136.569 11.6373 137.39 13.632 137.39 16C137.39 18.368 136.569 20.3733 134.926 22.016ZM125.806 19.168C126.638 20 127.673 20.416 128.91 20.416C130.148 20.416 131.182 20 132.014 19.168C132.846 18.336 133.262 17.28 133.262 16C133.262 14.72 132.846 13.664 132.014 12.832C131.182 12 130.148 11.584 128.91 11.584C127.673 11.584 126.638 12 125.806 12.832C124.996 13.664 124.59 14.72 124.59 16C124.59 17.28 124.996 18.336 125.806 19.168Z" fill="#16195E"/>
</svg>
